# File created by Blade
# Date/Time:  Thu Jan 22 15:33:09 2015
#---------------------------------------------------------
:version 1.10
:name HOM
:units
  mass 1.0
  length 1.000000
  angle deg
:documentation
     Acclaim Skeleton File
:root
   axis xyz
   order TX TY TZ RX RY RZ
   position 0.000000 0.000000 0.000000
   orientation 0 0 0
:bonedata
   begin
      id 1
      name RightUpLeg_dum
      direction -1.000000 0.000000 0.000000
      length 3.693983
      axis 0.0 0.0 0.0 xyz
   end
   begin
      id 2
      name LeftUpLeg_dum
      direction 1.000000 0.000000 0.000000
      length 3.693983
      axis 0.0 0.0 0.0 xyz
   end
   begin
      id 3
      name Spine_dum
      direction 0.000000 1.000000 0.000000
      length 2.392956
      axis 0.0 0.0 0.0 xyz
   end
   begin
      id 4
      name RightUpLeg
      direction 0.000000 -1.000000 0.000000
      length 15.795667
      axis 0.0 0.0 0.0 xyz
      dof rx ry rz
   end
   begin
      id 5
      name RightLeg
      direction 0.000000 -1.000000 0.000000
      length 14.766989
      axis 0.0 0.0 0.0 xyz
      dof rx ry rz
   end
   begin
      id 6
      name RightFoot
      direction 0.000000 -0.258819 0.965926
      length 4.962790
      axis 15.0 0.0 0.0 xyz
      dof rx ry rz
   end
   begin
      id 7
      name RightToeBase
      direction 0.000000 0.000000 1.000000
      length 2.952750
      axis 0.0 0.0 0.0 xyz
      dof rx ry rz
   end
   begin
      id 8
      name LeftUpLeg
      direction 0.000000 -1.000000 0.000000
      length 15.795667
      axis 0.0 0.0 0.0 xyz
      dof rx ry rz
   end
   begin
      id 9
      name LeftLeg
      direction 0.000000 -1.000000 0.000000
      length 14.766989
      axis 0.0 0.0 0.0 xyz
      dof rx ry rz
   end
   begin
      id 10
      name LeftFoot
      direction 0.000000 -0.258819 0.965926
      length 4.962790
      axis 15.0 0.0 0.0 xyz
      dof rx ry rz
   end
   begin
      id 11
      name LeftToeBase
      direction 0.000000 0.000000 1.000000
      length 2.952750
      axis 0.0 0.0 0.0 xyz
      dof rx ry rz
   end
   begin
      id 12
      name Spine
      direction 0.000000 1.000000 0.000000
      length 0.000000
      axis 0.0 0.0 0.0 xyz
      dof rx ry rz
   end
   begin
      id 13
      name Spine_dum1
      direction 0.000000 1.000000 0.000000
      length 13.207411
      axis 0.0 0.0 0.0 xyz
   end
   begin
      id 14
      name Spine_dum2
      direction 0.000000 1.000000 0.000000
      length 13.207411
      axis 0.0 0.0 0.0 xyz
   end
   begin
      id 15
      name Spine_dum3
      direction 0.000000 1.000000 0.000000
      length 19.250100
      axis 0.0 0.0 0.0 xyz
   end
   begin
      id 16
      name RightShoulder
      direction -1.000000 0.000000 0.000000
      length 8.140465
      axis 0.0 0.0 90.0 xyz
      dof rx ry rz
   end
   begin
      id 17
      name RightArm
      direction -1.000000 0.000000 0.000000
      length 10.649840
      axis 0.0 0.0 90.0 xyz
      dof rx ry rz
   end
   begin
      id 18
      name RightForeArm
      direction -1.000000 0.000000 0.000000
      length 8.304624
      axis 0.0 0.0 90.0 xyz
      dof ry rz rx
   end
   begin
      id 19
      name RightHand
      direction -1.000000 0.000000 0.000000
      length 0.000000
      axis 0.0 0.0 90.0 xyz
      dof rx ry rz
   end
   begin
      id 20
      name RightHand_dum1
      direction -1.000000 0.000000 0.000000
      length 3.937000
      axis 0.0 0.0 90.0 xyz
   end
   begin
      id 21
      name RightHand_dum2
      direction 0.000000 0.000000 0.000000
      length 0.000000
      axis 0.0 0.0 90.0 xyz
   end
   begin
      id 22
      name RightHandThumb1
      direction 0.000000 0.000000 1.000000
      length 3.937000
      axis 0.0 0.0 90.0 xyz
      dof rx rz ry
   end
   begin
      id 23
      name LeftShoulder
      direction 1.000000 0.000000 0.000000
      length 8.140465
      axis 0.0 0.0 -90.0 xyz
      dof rx ry rz
   end
   begin
      id 24
      name LeftArm
      direction 1.000000 0.000000 0.000000
      length 10.649840
      axis 0.0 0.0 -90.0 xyz
      dof rx ry rz
   end
   begin
      id 25
      name LeftForeArm
      direction 1.000000 0.000000 0.000000
      length 8.304624
      axis 0.0 0.0 -90.0 xyz
      dof ry rz rx
   end
   begin
      id 26
      name LeftHand
      direction 1.000000 0.000000 0.000000
      length 0.000000
      axis 0.0 0.0 -90.0 xyz
      dof rx ry rz
   end
   begin
      id 27
      name LeftHand_dum1
      direction 1.000000 0.000000 0.000000
      length 3.937000
      axis 0.0 0.0 -90.0 xyz
   end
   begin
      id 28
      name LeftHand_dum2
      direction 0.000000 0.000000 0.000000
      length 0.000000
      axis 0.0 0.0 -90.0 xyz
   end
   begin
      id 29
      name LeftHandThumb1
      direction 0.000000 0.000000 1.000000
      length 3.937000
      axis 0.0 0.0 -90.0 xyz
      dof rx rz ry
   end
   begin
      id 30
      name Head
      direction 0.000000 1.000000 0.000000
      length 4.527550
      axis 0.0 0.0 0.0 xyz
      dof rx ry rz
   end
:hierarchy
   begin
      root RightUpLeg_dum LeftUpLeg_dum Spine_dum
      RightUpLeg_dum RightUpLeg
      LeftUpLeg_dum LeftUpLeg
      Spine_dum Spine
      RightUpLeg RightLeg
      RightLeg RightFoot
      RightFoot RightToeBase
      LeftUpLeg LeftLeg
      LeftLeg LeftFoot
      LeftFoot LeftToeBase
      Spine Spine_dum1 Spine_dum2 Spine_dum3
      Spine_dum1 RightShoulder
      Spine_dum2 LeftShoulder
      Spine_dum3 Head
      RightShoulder RightArm
      RightArm RightForeArm
      RightForeArm RightHand
      RightHand RightHand_dum1 RightHand_dum2
      RightHand_dum2 RightHandThumb1
      LeftShoulder LeftArm
      LeftArm LeftForeArm
      LeftForeArm LeftHand
      LeftHand LeftHand_dum1 LeftHand_dum2
      LeftHand_dum2 LeftHandThumb1
   end

# File created by Blade
# Date/Time:  Thu Jan 22 15:33:01 2015
# Frame Rate: 120.000 fps
#------------------------------------------------------
:FULLY-SPECIFIED
:DEGREES
82
root 1.157496 32.494914 -4.711157 38.095734 5.460914 1.429195
RightUpLeg -29.064665 -15.181520 6.668609
RightLeg -3.429910 -0.000000 0.000000
RightFoot -11.928526 4.969210 19.318393
RightToeBase 21.165918 -0.000000 -0.000000
LeftUpLeg -30.936217 5.712129 -2.591525
LeftLeg 0.889923 -0.000000 -0.000000
LeftFoot -11.038112 -11.170809 -1.039387
LeftToeBase 4.020305 -0.000000 -0.000000
Spine -44.368545 -2.664225 -0.895672
RightShoulder -18.215773 14.711502 -42.002620
RightArm 2.063749 -23.554726 43.856016
RightForeArm 5.505989 -0.000000 -2.410760
RightHand 8.381850 -0.000000 0.624415
RightHandThumb1 -24.326973 -0.000000 -32.862282
LeftShoulder -11.278862 4.765879 37.486596
LeftArm 21.036954 -5.367533 -39.296262
LeftForeArm 21.170090 -0.000000 -1.064623
LeftHand -28.324710 0.000000 4.514553
LeftHandThumb1 -26.253704 0.000000 33.147579
Head 9.859517 -1.661135 7.676710
83
root 1.161850 32.496420 -4.725664 38.073762 5.454091 1.436845
RightUpLeg -29.082617 -15.227601 6.668074
RightLeg -3.409286 -0.000000 0.000000
RightFoot -11.908800 5.033835 19.327097
RightToeBase 21.219935 -0.000000 -0.000000
LeftUpLeg -30.988773 5.684305 -2.609987
LeftLeg 0.995655 -0.000000 -0.000000
LeftFoot -11.122523 -11.061520 -0.877950
LeftToeBase 4.107984 -0.000000 -0.000000
Spine -44.273994 -2.645347 -0.906385
RightShoulder -18.180031 14.362421 -41.745862
RightArm 1.839513 -23.914733 44.286522
RightForeArm 5.460880 -0.000000 -1.758289
RightHand 8.667051 -0.000000 -0.552090
RightHandThumb1 -24.326973 -0.000000 -32.862282
LeftShoulder -11.298206 4.905427 37.292015
LeftArm 20.888228 -5.166591 -39.717987
LeftForeArm 21.523469 -0.000000 -0.409074
LeftHand -28.708868 -0.000000 5.397355
LeftHandThumb1 -26.253704 0.000000 33.147579
Head 9.796279 -1.746389 7.731097
84
root 1.168600 32.498442 -4.740890 38.071739 5.412310 1.453237
RightUpLeg -29.129986 -15.279858 6.655025
RightLeg -3.388247 -0.000000 0.000000
RightFoot -11.808673 5.193452 19.486909
RightToeBase 21.079431 -0.000000 -0.000000
LeftUpLeg -31.055159 5.681881 -2.664626
LeftLeg 1.089485 -0.000000 -0.000000
LeftFoot -11.107019 -11.022285 -0.849982
LeftToeBase 3.963054 -0.000000 -0.000000
Spine -44.195020 -2.610947 -0.927078
RightShoulder -18.157696 14.034748 -41.477984
RightArm 1.615447 -24.289686 44.765292
RightForeArm 5.513218 0.000000 -1.082800
RightHand 8.968988 -0.000000 -1.643867
RightHandThumb1 -24.326973 -0.000000 -32.862282
LeftShoulder -11.355353 5.073041 37.066744
LeftArm 20.745981 -4.772938 -40.113906
LeftForeArm 21.620869 0.000000 0.342760
LeftHand -29.182917 -0.000000 6.408006
LeftHandThumb1 -26.253704 0.000000 33.147579
Head 9.730859 -1.841296 7.754273
85
root 1.171856 32.500343 -4.756516 38.046712 5.392282 1.448653
RightUpLeg -29.155781 -15.297297 6.647891
RightLeg -3.342441 -0.000000 0.000000
RightFoot -11.826238 5.222387 19.408360
RightToeBase 21.189222 -0.000000 -0.000000
LeftUpLeg -31.105858 5.671568 -2.677287
LeftLeg 1.189526 -0.000000 -0.000000
LeftFoot -11.139677 -10.956744 -0.788257
LeftToeBase 3.948122 -0.000000 -0.000000
Spine -44.089058 -2.573071 -0.934702
RightShoulder -18.178620 13.629937 -41.177484
RightArm 1.481495 -24.751610 45.265956
RightForeArm 5.664968 -0.000000 -0.482715
RightHand 9.523957 0.000000 -2.611987
RightHandThumb1 -24.326973 -0.000000 -32.862282
LeftShoulder -11.376479 5.284056 36.825169
LeftArm 20.554629 -4.331653 -40.549382
LeftForeArm 21.728565 -0.000000 1.274575
LeftHand -29.669677 0.000000 7.595014
LeftHandThumb1 -26.253704 0.000000 33.147579
Head 9.672375 -1.940383 7.781654
86
root 1.176707 32.503239 -4.773758 38.056125 5.336742 1.436850
RightUpLeg -29.228314 -15.278724 6.632413
RightLeg -3.286981 -0.000000 0.000000
RightFoot -11.799534 5.290018 19.390469
RightToeBase 21.204347 -0.000000 -0.000000
LeftUpLeg -31.199701 5.711206 -2.726238
LeftLeg 1.304419 -0.000000 -0.000000
LeftFoot -11.183553 -10.910588 -0.693567
LeftToeBase 3.922924 -0.000000 -0.000000
Spine -44.015885 -2.499119 -0.954810
RightShoulder -18.225155 13.243383 -40.878093
RightArm 1.391256 -25.126075 45.837550
RightForeArm 5.627045 0.000000 -0.034277
RightHand 10.278677 -0.000000 -3.466057
RightHandThumb1 -24.326973 -0.000000 -32.862282
LeftShoulder -11.391223 5.516899 36.559273
LeftArm 20.320477 -4.196601 -41.168250
LeftForeArm 22.110588 -0.000000 2.380583
LeftHand -30.249451 0.000000 8.952507
LeftHandThumb1 -26.253704 0.000000 33.147579
Head 9.623385 -2.033335 7.797291
87
root 1.185372 32.505918 -4.792885 38.083421 5.287802 1.434804
RightUpLeg -29.323935 -15.261322 6.603371
RightLeg -3.226125 -0.000000 0.000000
RightFoot -11.766849 5.368091 19.463071
RightToeBase 21.242793 -0.000000 -0.000000
LeftUpLeg -31.317653 5.731632 -2.787300
LeftLeg 1.427609 -0.000000 -0.000000
LeftFoot -11.225829 -10.837650 -0.585614
LeftToeBase 3.878962 -0.000000 -0.000000
Spine -43.960079 -2.430825 -0.960559
RightShoulder -18.274529 12.889459 -40.594536
RightArm 1.242813 -25.560086 46.497343
RightForeArm 5.735862 -0.000000 0.509064
RightHand 10.733410 0.000000 -4.129148
RightHandThumb1 -24.326973 -0.000000 -32.862282
LeftShoulder -11.384294 5.785529 36.280655
LeftArm 20.025093 -4.169757 -41.903675
LeftForeArm 22.633824 -0.000000 3.637098
LeftHand -30.640041 -0.000000 10.269480
LeftHandThumb1 -26.253704 0.000000 33.147579
Head 9.589484 -2.138145 7.778466
88
root 1.195640 32.507907 -4.811436 38.080236 5.251583 1.443177
RightUpLeg -29.389497 -15.273420 6.572419
RightLeg -3.164153 -0.000000 0.000000
RightFoot -11.732673 5.438946 19.495451
RightToeBase 21.172002 -0.000000 -0.000000
LeftUpLeg -31.399620 5.721084 -2.836900
LeftLeg 1.544228 -0.000000 -0.000000
LeftFoot -11.299718 -10.827788 -0.663807
LeftToeBase 4.123683 -0.000000 -0.000000
Spine -43.869758 -2.380077 -0.960535
RightShoulder -18.304278 12.543161 -40.274887
RightArm 1.118902 -25.920637 47.195075
RightForeArm 5.873632 -0.000000 0.956025
RightHand 11.052046 0.000000 -4.809052
RightHandThumb1 -24.326973 -0.000000 -32.862282
LeftShoulder -11.341945 6.093610 35.974954
LeftArm 19.646168 -4.206562 -42.715116
LeftForeArm 23.093676 -0.000000 5.059286
LeftHand -31.268765 -0.000000 11.681222
LeftHandThumb1 -26.253704 0.000000 33.147579
Head 9.563757 -2.234191 7.779666
89
root 1.206732 32.509208 -4.832270 38.085632 5.216307 1.440195
RightUpLeg -29.475479 -15.243903 6.532065
RightLeg -3.074744 -0.000000 0.000000
RightFoot -11.753924 5.477104 19.451050
RightToeBase 21.245926 -0.000000 -0.000000
LeftUpLeg -31.501081 5.700157 -2.870721
LeftLeg 1.673445 -0.000000 -0.000000
LeftFoot -11.371600 -10.728163 -0.487749
LeftToeBase 4.073946 -0.000000 -0.000000
Spine -43.788198 -2.336277 -0.930396
RightShoulder -18.314917 12.293029 -39.983022
RightArm 0.883050 -26.379132 48.007715
RightForeArm 5.893447 -0.000000 1.392891
RightHand 11.440003 -0.000000 -5.389915
RightHandThumb1 -24.326973 -0.000000 -32.862282
LeftShoulder -11.314560 6.354561 35.643771
LeftArm 19.241774 -4.250001 -43.591082
LeftForeArm 23.737371 0.000000 6.520500
LeftHand -31.692790 0.000000 12.993336
LeftHandThumb1 -26.253704 0.000000 33.147579
Head 9.571123 -2.316713 7.780188
90
root 1.217333 32.510476 -4.856011 38.098147 5.135578 1.419224
RightUpLeg -29.586037 -15.124703 6.457607
RightLeg -2.956335 -0.000000 0.000000
RightFoot -11.779528 5.462653 19.499943
RightToeBase 21.255982 -0.000000 -0.000000
LeftUpLeg -31.617259 5.721459 -2.918384
LeftLeg 1.815762 -0.000000 -0.000000
LeftFoot -11.447754 -10.627332 -0.372402
LeftToeBase 4.010450 -0.000000 -0.000000
Spine -43.715254 -2.258639 -0.917675
RightShoulder -18.295101 11.998540 -39.657043
RightArm 0.653899 -26.712794 48.868781
RightForeArm 5.941287 0.000000 1.842972
RightHand 11.664541 -0.000000 -5.540787
RightHandThumb1 -24.326973 -0.000000 -32.862282
LeftShoulder -11.200931 6.791995 35.318543
LeftArm 18.760738 -4.655592 -44.667651
LeftForeArm 24.591254 -0.000000 8.233969
LeftHand -32.019178 -0.000000 14.246691
LeftHandThumb1 -26.253704 0.000000 33.147579
Head 9.624239 -2.402361 7.802610
91
root 1.228787 32.511436 -4.876758 38.110683 5.096825 1.397305
RightUpLeg -29.696102 -15.063658 6.424379
RightLeg -2.833918 -0.000000 0.000000
RightFoot -11.795491 5.485716 19.547592
RightToeBase 21.248505 -0.000000 -0.000000
LeftUpLeg -31.723520 5.671810 -2.915933
LeftLeg 1.947286 -0.000000 -0.000000
LeftFoot -11.533828 -10.483231 -0.257850
LeftToeBase 4.030424 -0.000000 -0.000000
Spine -43.645445 -2.204960 -0.880461
RightShoulder -18.260256 11.832369 -39.413993
RightArm 0.200910 -26.959490 49.955598
RightForeArm 5.969183 -0.000000 2.323510
RightHand 11.436996 -0.000000 -5.715977
RightHandThumb1 -24.326973 -0.000000 -32.862282
LeftShoulder -11.119934 7.071272 34.987575
LeftArm 18.275133 -4.780127 -45.715203
LeftForeArm 25.373777 -0.000000 9.822388
LeftHand -32.128479 -0.000000 15.296091
LeftHandThumb1 -26.253704 0.000000 33.147579
Head 9.694852 -2.560429 7.801684
